<?xml version="1.0" encoding="utf-8"?>
<!-- Generator: Adobe Illustrator 24.1.1, SVG Export Plug-In . SVG Version: 6.00 Build 0)  -->
<svg version="1.1" id="レイヤー_1" xmlns="http://www.w3.org/2000/svg" xmlns:xlink="http://www.w3.org/1999/xlink" x="0px"
	 y="0px" viewBox="0 0 340 120" style="enable-background:new 0 0 340 120;" xml:space="preserve">
<style type="text/css">
	.st0{fill-rule:evenodd;clip-rule:evenodd;fill:none;}
	.st1{fill-rule:evenodd;clip-rule:evenodd;fill:#FFFFFF;filter:url(#Adobe_OpacityMaskFilter);}
	.st2{mask:url(#a_1_);fill:#364C97;}
	.st3{fill:#FFFFFF;stroke:#364C97;stroke-width:2;}
	.st4{fill:none;stroke:#364C97;stroke-width:2;}
	.st5{fill:none;stroke:#333333;stroke-width:2;}
	.st6{fill-rule:evenodd;clip-rule:evenodd;fill:#FFFFFF;filter:url(#Adobe_OpacityMaskFilter_1_);}
	.st7{mask:url(#b_1_);fill:#364C97;}
	.st8{fill:#364C97;}
	.st9{fill:#4D4D4D;}
	.st10{font-family:'KozGoPr6N-Heavy-90ms-RKSJ-H';}
	.st11{font-size:10px;}
	.st12{font-size:8px;}
</style>
<path class="st0" d="M141,24H98v96h47V44h97V24h-97H141z"/>
<defs>
	<filter id="Adobe_OpacityMaskFilter" filterUnits="userSpaceOnUse" x="96" y="22" width="148" height="100">
		<feColorMatrix  type="matrix" values="1 0 0 0 0  0 1 0 0 0  0 0 1 0 0  0 0 0 1 0"/>
	</filter>
</defs>
<mask maskUnits="userSpaceOnUse" x="96" y="22" width="148" height="100" id="a_1_">
	<path class="st1" d="M141,24H98v96h47V44h97V24h-97H141z"/>
</mask>
<path class="st2" d="M98,24v-2h-2v2H98z M98,120h-2v2h2V120z M145,120v2h2v-2H145z M145,44v-2h-2v2H145z M242,44v2h2v-2H242z
	 M242,24h2v-2h-2V24z M98,26h43v-4H98V26z M100,120V24h-4v96H100z M145,118H98v4h47V118z M143,44v76h4V44H143z M242,42h-97v4h97V42z
	 M240,24v20h4V24H240z M145,26h97v-4h-97V26z M141,26h4v-4h-4V26z"/>
<path class="st3" d="M148,47h44v72h-44V47z"/>
<path class="st4" d="M196,47h45v72h-45V47z"/>
<path class="st5" d="M1,1h45v118H1V1z"/>
<path class="st0" d="M340,0H49v17v5v98h47V22h244V0z"/>
<defs>
	<filter id="Adobe_OpacityMaskFilter_1_" filterUnits="userSpaceOnUse" x="47" y="-2" width="295" height="124">
		<feColorMatrix  type="matrix" values="1 0 0 0 0  0 1 0 0 0  0 0 1 0 0  0 0 0 1 0"/>
	</filter>
</defs>
<mask maskUnits="userSpaceOnUse" x="47" y="-2" width="295" height="124" id="b_1_">
	<path class="st6" d="M340,0H49v17v5v98h47V22h244V0z"/>
</mask>
<path class="st7" d="M49,0v-2h-2v2H49z M340,0h2v-2h-2V0z M49,120h-2v2h2V120z M96,120v2h2v-2H96z M96,22v-2h-2v2H96z M340,22v2h2
	v-2H340z M49,2h291v-4H49V2z M51,17V0h-4v17H51z M51,22v-5h-4v5H51z M51,120V22h-4v98H51z M96,118H49v4h47V118z M94,22v98h4V22H94z
	 M340,20H96v4h244V20z M338,0v22h4V0H338z"/>
<path class="st4" d="M294,25h45v94h-45V25z"/>
<path class="st4" d="M245,25h45v94h-45V25z"/>
<path class="st8" d="M60.1,66.3h-2.3v-0.5h2.3V66.3z M60.1,67.6h-2.3v-0.5h2.3V67.6z M61.2,65h-4.5v3.4h4.5V65z M61.9,69.8v-0.9h-6
	v0.9h1c-0.3,0.5-0.7,1-1.2,1.4c0.1-0.2,0.2-0.5,0.2-0.9c0-0.6-0.1-1.3-0.7-2c0.3-0.8,0.6-1.9,0.9-2.7L55.3,65l-0.2,0.1H53V74h1v-7.8
	h0.8c-0.2,0.7-0.4,1.6-0.6,2.2c0.6,0.7,0.7,1.3,0.7,1.8c0,0.3,0,0.5-0.2,0.6c-0.1,0.1-0.2,0.1-0.3,0.1c-0.1,0-0.3,0-0.4,0
	c0.2,0.3,0.3,0.7,0.3,1c0.2,0,0.5,0,0.6,0c0.2,0,0.4-0.1,0.5-0.2c0.2,0.2,0.5,0.5,0.6,0.6c0.4-0.3,0.8-0.6,1.1-1h0.5
	c-0.5,0.8-1.2,1.4-2,1.9c0.2,0.2,0.5,0.6,0.7,0.7c0.9-0.6,1.9-1.5,2.4-2.6h0.5c-0.4,0.9-1,1.7-1.7,2.2c0.2,0.2,0.6,0.5,0.7,0.7
	c0.8-0.7,1.5-1.7,2-2.8h0.2c-0.1,1.2-0.2,1.7-0.3,1.8c-0.1,0.1-0.2,0.1-0.3,0.1s-0.4,0-0.6,0c0.1,0.3,0.3,0.7,0.3,1c0.4,0,0.7,0,1,0
	c0.2-0.1,0.4-0.1,0.6-0.3c0.3-0.3,0.4-1.1,0.5-3l0-0.4h-3.8c0.1-0.2,0.2-0.3,0.3-0.5H61.9z M69.5,72.6v-2h1.8v-1.1h-1.8v-1.6h2v-1.1
	h-2v-2h-1.2v2h-0.8c0.1-0.4,0.2-0.9,0.3-1.4l-1.2-0.2c-0.1,0.8-0.3,1.7-0.5,2.4c-0.1-0.4-0.3-0.9-0.6-1.3l-0.6,0.2v-1.9h-1.2v2
	l-0.8-0.1c-0.1,0.8-0.3,1.9-0.5,2.6l0.9,0.3c0.2-0.7,0.4-1.8,0.4-2.7V74h1.2v-6.8c0.2,0.4,0.3,0.8,0.4,1.2l0.6-0.3
	c-0.1,0.2-0.2,0.4-0.3,0.6c0.3,0.1,0.8,0.4,1.1,0.5c0.2-0.4,0.4-0.9,0.6-1.4h1.1v1.6h-1.9v1.1h1.9v2h-2.7v1.1h6.2v-1.1L69.5,72.6z
	 M77.2,66.8h1.6c-0.3,0.3-0.7,0.6-1.1,0.9h-0.6L77.2,66.8z M79.3,71.1h-3.4v-0.6h3.4V71.1z M75.9,72.7V72h3.4v0.7H75.9z M81.7,68.7
	v-1.1h-2.3c0.7-0.7,1.4-1.4,2-2.2l-1-0.5c-0.3,0.4-0.7,0.9-1,1.3v-0.5h-2.2v-1.1H76v1.1h-2.3v1H76v0.9h-3.2v1.1h3.4
	c-1.2,0.7-2.4,1.3-3.7,1.7c0.2,0.2,0.6,0.7,0.7,1c0.5-0.2,1-0.4,1.5-0.6V74h1.2v-0.3h3.4V74h1.3v-4.4h-3.6c0.4-0.3,0.8-0.5,1.2-0.8
	L81.7,68.7z M87.6,70.8v-1c0.1,0.1,0.1,0.1,0.1,0.2c0.2-0.2,0.3-0.5,0.5-0.7c0.2,0.7,0.4,1.4,0.7,2c-0.4,0.6-1,1.1-1.8,1.5
	c-0.2-0.2-0.5-0.3-0.8-0.5c0.3-0.4,0.4-0.9,0.5-1.4L87.6,70.8z M84.7,70.8h1c-0.1,0.4-0.2,0.7-0.4,0.9c-0.3-0.1-0.6-0.3-0.9-0.4
	L84.7,70.8z M90.1,67.6c-0.1,0.9-0.3,1.7-0.5,2.3c-0.3-0.7-0.5-1.5-0.6-2.3H90.1z M91.9,67.6v-1.1h-2.7c0.1-0.5,0.2-1.1,0.3-1.6
	l-1.2-0.2c-0.2,1.8-0.7,3.5-1.6,4.5c0.2,0.2,0.6,0.5,0.8,0.7h-2.4l0.2-0.5L85,69.3h0.6v-1.2c0.4,0.3,0.8,0.7,1,0.9l0.6-0.8
	c-0.2-0.2-0.9-0.6-1.4-0.8h1.6v-0.9h-0.9c0.2-0.3,0.6-0.7,0.9-1.2l-1-0.4c-0.2,0.4-0.4,0.9-0.7,1.3l0.7,0.3h-0.8v-1.7h-1.1v1.7h-0.8
	l0.6-0.3c-0.1-0.3-0.3-0.9-0.6-1.2l-0.9,0.4c0.2,0.4,0.4,0.8,0.5,1.2h-0.8v0.9h1.6c-0.5,0.5-1.2,1-1.8,1.3c0.2,0.2,0.5,0.6,0.6,0.9
	c0.5-0.3,1-0.7,1.5-1.2v1l-0.2-0.1c-0.1,0.2-0.2,0.5-0.3,0.7h-1.4v1h0.9c-0.3,0.5-0.5,0.9-0.7,1.3l1,0.3l0.1-0.2
	c0.2,0.1,0.4,0.2,0.6,0.3c-0.5,0.3-1.1,0.4-1.9,0.5c0.2,0.2,0.4,0.6,0.5,1c1.1-0.2,1.9-0.5,2.5-0.9c0.4,0.3,0.8,0.5,1,0.8l0.4-0.5
	c0.2,0.2,0.3,0.5,0.4,0.7c0.9-0.4,1.6-1,2.1-1.6c0.4,0.7,1,1.2,1.7,1.6c0.2-0.3,0.6-0.8,0.8-1c-0.7-0.4-1.3-0.9-1.8-1.7
	c0.5-1,0.9-2.3,1.1-3.7L91.9,67.6z"/>
<path class="st9" d="M9.1,70.3v-0.9h1v0.6c0,0.1,0,0.2,0,0.3L9.1,70.3z M12.2,69.3v0.9h-1.1c0-0.1,0-0.2,0-0.3v-0.6L12.2,69.3z
	 M9.4,66.8c0.5-0.4,0.9-0.8,1.2-1.3c0.3,0.4,0.7,0.9,1.2,1.3H9.4z M13.3,71.2v-2.8h-2.1v-0.6h1.3v-0.5c0.3,0.2,0.5,0.3,0.8,0.5
	c0.2-0.3,0.4-0.8,0.6-1c-1-0.4-2.1-1.2-2.8-2.2H10c-0.5,0.8-1.4,1.6-2.3,2.1v-0.1H6.8v-2.1H5.7v2.1H4.5v1.1h1.2
	c-0.3,1.2-0.8,2.6-1.4,3.4c0.2,0.3,0.4,0.7,0.5,1.1c0.3-0.5,0.7-1.2,0.9-1.9v3.7h1.1v-4.3C7,70,7.2,70.5,7.3,70.7l0.6-0.9
	c-0.2-0.3-0.8-1.3-1.1-1.7v-0.5h0.9v-0.5c0.1,0.2,0.2,0.4,0.3,0.6c0.3-0.1,0.6-0.3,0.8-0.5v0.5h1.3v0.6H8v2.8h1.8
	c-0.3,0.7-0.9,1.4-2.5,1.8c0.2,0.2,0.5,0.6,0.6,0.9c1.5-0.5,2.3-1.2,2.7-2c0.6,1.1,1.4,1.6,2.4,2c0.1-0.3,0.4-0.7,0.7-1
	c-1-0.3-1.7-0.7-2.3-1.7L13.3,71.2z M16.2,68.8c0.8-0.5,1.6-1.2,2.2-1.9v1.6h1.2V67c0.6,0.7,1.4,1.4,2.2,1.8H16.2z M17.3,72.6v-0.4
	h3.4v0.4H17.3z M17.3,71h3.4v0.4h-3.4V71z M20.7,70.2h-3.4v-0.4h3.4V70.2z M23.5,66.7v-1h-3.9v-1.1h-1.2v1.1h-3.8v1h2.7
	c-0.8,0.8-1.9,1.4-3,1.8c0.3,0.2,0.6,0.7,0.7,0.9c0.4-0.2,0.8-0.3,1.1-0.6v3.8h-1.6v1h9v-1h-1.6v-3.8c0.3,0.2,0.7,0.4,1,0.5
	c0.2-0.3,0.5-0.7,0.8-0.9c-1.1-0.3-2.3-1-3.1-1.7L23.5,66.7z M25.9,67.2v-0.8H32v0.8h-2.5v-0.6h-1.2v0.6H25.9z M33.4,71.4v-1h-4
	c0-0.2,0.1-0.4,0.1-0.6h2.7v-1h-2.7v-0.6h2.9v-0.7h0.8v-2.1h-3.7v-0.9h-1.2v0.9h-3.6v2.1h0.9v0.7h2.7v0.6h-2.6v1h2.6
	c0,0.2,0,0.4-0.1,0.6h-3.6v1h3c-0.5,0.6-1.5,1.1-3.2,1.5c0.3,0.3,0.6,0.7,0.7,1c2-0.6,3.1-1.3,3.7-2.2c0.8,1.2,2,1.9,3.9,2.3
	c0.2-0.3,0.5-0.8,0.7-1c-1.6-0.2-2.7-0.6-3.4-1.4L33.4,71.4z M38.2,69.7l0-1v-0.4h-1.8c0-0.3,0-0.7,0-1.1h1.9
	c-0.1,0.1-0.2,0.3-0.3,0.4c0.3,0.2,0.7,0.6,0.9,0.8l0.1-0.1v1L38.2,69.7z M40.7,72.8c-0.5,0-0.6-0.1-0.6-0.5V70l0.5-0.3V72h1v-2.8
	l0.6-0.3c0,0.9,0,1.5,0,1.6c0,0.1-0.1,0.2-0.1,0.2s-0.2,0-0.3,0c0.1,0.2,0.2,0.6,0.2,0.9c0.3,0,0.6,0,0.8-0.1
	c0.3-0.1,0.4-0.3,0.4-0.7c0-0.3,0-1.3,0-2.7l0-0.2l-0.7-0.3l-0.2,0.1l0,0l-0.7,0.3v-1h-1v1.4l-0.5,0.3v-1h-0.7
	c0.2-0.3,0.4-0.6,0.6-1h3.6v-1.1h-3.1c0.1-0.3,0.2-0.7,0.3-1l-1.2-0.2c-0.2,0.8-0.5,1.6-0.9,2.3V66h-1.6v-1.5h-1.1V66h-1.5v1.1h1
	c0,2.3-0.1,4.5-1.1,5.9c0.3,0.2,0.7,0.6,0.8,0.8c0.8-1.1,1.2-2.8,1.3-4.6h0.8c0,2.3-0.1,3.2-0.2,3.4c-0.1,0.1-0.2,0.2-0.3,0.2
	s-0.4,0-0.7,0c0.2,0.3,0.3,0.7,0.3,1.1c0.4,0,0.8,0,1-0.1c0.3-0.1,0.5-0.2,0.6-0.4c0.2-0.3,0.3-1.3,0.3-3.7l0.4,1l0.4-0.2v1.9
	c0,1.1,0.3,1.5,1.5,1.5h1.8c1,0,1.3-0.4,1.4-1.6c-0.3-0.1-0.7-0.2-1-0.4c-0.1,0.9-0.1,1.1-0.5,1.1L40.7,72.8z M18.2,76.8
	c-0.1,1.3,0.1,5.9-3.9,8.1c0.4,0.3,0.8,0.6,1,0.9c2.1-1.3,3.2-3.2,3.7-5c0.6,1.8,1.7,3.9,3.9,5c0.2-0.3,0.5-0.7,0.9-1
	c-3.7-1.8-4.2-6.1-4.3-7.4c0-0.2,0-0.4,0-0.6L18.2,76.8z M29.4,82.7v-1c0.1,0.1,0.1,0.1,0.1,0.2c0.2-0.2,0.3-0.5,0.5-0.7
	c0.2,0.7,0.4,1.4,0.7,2c-0.4,0.6-1,1.1-1.8,1.5c-0.2-0.2-0.5-0.3-0.8-0.5c0.3-0.4,0.4-0.9,0.5-1.4L29.4,82.7z M26.5,82.7h1
	c-0.1,0.4-0.2,0.7-0.4,0.9c-0.3-0.1-0.6-0.3-0.9-0.4L26.5,82.7z M31.9,79.4c-0.1,0.9-0.3,1.7-0.5,2.3c-0.3-0.7-0.5-1.5-0.6-2.3H31.9
	z M33.7,79.4v-1.1H31c0.1-0.5,0.2-1.1,0.3-1.6l-1.2-0.2c-0.2,1.8-0.7,3.5-1.6,4.5c0.2,0.2,0.6,0.5,0.8,0.7H27l0.2-0.5l-0.4-0.1h0.6
	v-1.2c0.4,0.3,0.8,0.7,1,0.9l0.6-0.8c-0.2-0.2-0.9-0.6-1.4-0.8h1.6v-0.9h-1c0.2-0.3,0.5-0.7,0.9-1.2l-1-0.4
	c-0.2,0.4-0.4,0.9-0.7,1.3l0.7,0.3h-0.8v-1.7h-1.1v1.7h-0.8l0.6-0.3c-0.1-0.3-0.3-0.9-0.6-1.2L24.7,77c0.2,0.4,0.4,0.8,0.5,1.2h-0.8
	v0.9H26c-0.5,0.5-1.1,1-1.8,1.3c0.2,0.2,0.5,0.6,0.6,0.9c0.5-0.3,1-0.7,1.5-1.2v1L26.1,81c-0.1,0.2-0.2,0.5-0.3,0.7h-1.5v1h1
	c-0.3,0.5-0.5,0.9-0.7,1.3l1,0.3l0.1-0.2c0.2,0.1,0.4,0.2,0.6,0.3c-0.5,0.3-1.1,0.4-1.9,0.5c0.2,0.2,0.4,0.6,0.5,1
	c1.1-0.2,1.9-0.5,2.5-0.9c0.4,0.3,0.8,0.5,1,0.8l0.5-0.5c0.2,0.2,0.3,0.5,0.4,0.7c0.9-0.4,1.6-1,2.1-1.6c0.5,0.7,1,1.2,1.7,1.6
	c0.2-0.3,0.5-0.8,0.8-1c-0.7-0.4-1.3-0.9-1.8-1.7c0.5-1,0.9-2.3,1.1-3.7L33.7,79.4z"/>
<g>
	<path class="st8" d="M262,80.5c-0.1,0.5-0.3,1-0.5,1.4c-0.4-0.3-0.9-0.6-1.3-0.8c0.1-0.2,0.3-0.4,0.4-0.6H262z M265.2,84.7
		c-0.4,0-0.4-0.1-0.4-0.6v-1.9c0.9-0.5,1.9-1,2.7-1.6l-0.9-1c-0.5,0.4-1.1,0.9-1.8,1.4v-2.6h2.7v-1.1h-8.9v1.1h1.7
		c-0.4,1.2-1.1,2.6-2,3.4c0.3,0.2,0.7,0.5,0.9,0.8c0.2-0.2,0.3-0.3,0.5-0.5c0.5,0.3,1,0.6,1.4,0.9c-0.6,0.9-1.4,1.5-2.3,1.9
		c0.3,0.2,0.7,0.7,0.9,0.9c1.9-1,3.3-3,3.8-6.2l-0.8-0.3l-0.2,0h-1.2c0.1-0.3,0.3-0.7,0.4-1l-0.2,0h2.2v5.7c0,1.3,0.3,1.7,1.4,1.7
		h1.3c1,0,1.3-0.5,1.4-2.1c-0.3-0.1-0.8-0.3-1.1-0.5c0,1.2-0.1,1.5-0.5,1.5H265.2z M277.5,79.6v-1.2h-4v-1.9h-1.2v1.9h-3.9v1.2h1.1
		v3.8c0,1.7,0.7,2.1,2.4,2.1h3.4c0.7,0,1.6,0,1.9-0.1c-0.1-0.3-0.1-0.9-0.1-1.2c-0.4,0.1-1.1,0.1-1.7,0.1h-3.6c-0.8,0-1-0.3-1-0.9
		v-3.9L277.5,79.6z"/>
</g>
<text transform="matrix(1 0 0 1 57.1551 84.9951)" class="st8 st10 st11">（累積）</text>
<text transform="matrix(1 0 0 1 208.2182 84.9955)" class="st8 st10 st11">重症</text>
<text transform="matrix(1 0 0 1 101.3445 74.7246)"><tspan x="0" y="0" class="st8 st10 st11">入院・</tspan><tspan x="0" y="9.6" class="st8 st10 st12">入院調整中</tspan></text>
<text transform="matrix(1 0 0 1 154.404 72.69)"><tspan x="0" y="0" class="st8 st10 st11">軽症・</tspan><tspan x="0" y="12" class="st8 st10 st11">無症状</tspan></text>
<text transform="matrix(1 0 0 1 296.2083 84.9948)" class="st8 st10 st12">陰性確認済</text>
</svg>
